# xmcd
#
# Track frame offsets:
#	150
#	14451
#	29434
#	43220
#	56450
#	71603
#	86446
#	102661
#	119752
#	133618
#	151566
#	166194
#	179965
#	194449
#	209985
#	223163
#
# Disc length: 3167 seconds
#
# Revision: 1
# Processed by: cddbd v1.5.2PL0 Copyright (c) Steve Scherf et al.
# Submitted via: audiograbber 1.83.01
#
DISCID=f80c5d10
DTITLE=Various Artist - CDX 649
DYEAR=2017
DGENRE=Country
TTITLE0=Josh Turner - All About You
TTITLE1=Lee Brice - Boy
TTITLE2=Jordan Davis - Singles You Up
TTITLE3=Jeff Coltrec - Delirious Trucker
TTITLE4=Domingo and Esteban Hiracheta - Free To Believe
TTITLE5=Brian Milson - I'd Have To Kiss Ya
TTITLE6=Heartland - I Loved Her First
TTITLE7=Tommy Roe - Just Your Kind Of Song
TTITLE8=Scott Brantley - My Cooler
TTITLE9=George Allen Truax - My Hometown
TTITLE10=Bailey James - Run Girl
TTITLE11=Lori Smith - Tumblin' Paradise
TTITLE12=Justin Dukes - Warning Sign
TTITLE13=Alan Turner - Windows And Mirrors
TTITLE14=Dave McElroy - Without You
TTITLE15=April Kry - While We're Young
EXTD=
EXTT0=
EXTT1=
EXTT2=
EXTT3=
EXTT4=
EXTT5=
EXTT6=
EXTT7=
EXTT8=
EXTT9=
EXTT10=
EXTT11=
EXTT12=
EXTT13=
EXTT14=
EXTT15=
PLAYORDER=
